<svg width="16" height="14" viewBox="0 0 16 14" fill="none" xmlns="http://www.w3.org/2000/svg">
<path d="M1.58334 7.91668L12.455 7.91668L9.12751 11.9133C8.8035 12.3032 8.85686 12.8818 9.24668 13.2058C9.6365 13.5299 10.2152 13.4765 10.5392 13.0867L15.1225 7.58668C15.1533 7.54293 15.1809 7.49697 15.205 7.44918C15.205 7.40335 15.205 7.37584 15.2692 7.33001C15.3107 7.22491 15.3325 7.11303 15.3333 7.00001C15.3325 6.887 15.3107 6.77512 15.2692 6.67001C15.2692 6.62418 15.2692 6.59668 15.205 6.55085C15.1809 6.50305 15.1533 6.45709 15.1225 6.41334L10.5392 0.913344C10.3647 0.70385 10.106 0.582902 9.83334 0.583345C9.61916 0.582927 9.4116 0.657521 9.24668 0.794179C9.05921 0.949598 8.94129 1.17322 8.91893 1.4157C8.89658 1.65819 8.97162 1.8996 9.12751 2.08668L12.455 6.08334L1.58334 6.08334C1.07708 6.08334 0.666677 6.49375 0.666677 7.00001C0.666677 7.50627 1.07708 7.91668 1.58334 7.91668Z" fill="#FEFEFE"/>
</svg>
